<svg width="165" height="60" viewBox="0 0 165 60" fill="none" xmlns="http://www.w3.org/2000/svg">
<path opacity="0.24" d="M15 57.5H5C4.67167 57.5001 4.34654 57.4355 4.04319 57.3099C3.73984 57.1843 3.46421 57.0001 3.23204 56.768C2.99988 56.5358 2.81573 56.2602 2.69013 55.9568C2.56452 55.6535 2.49991 55.3283 2.5 55V35C2.49991 34.6717 2.56452 34.3465 2.69013 34.0432C2.81573 33.7398 2.99988 33.4642 3.23204 33.232C3.46421 32.9999 3.73984 32.8157 4.04319 32.6901C4.34654 32.5645 4.67167 32.4999 5 32.5H15C15.3283 32.4999 15.6535 32.5645 15.9568 32.6901C16.2602 32.8157 16.5358 32.9999 16.768 33.232C17.0001 33.4642 17.1843 33.7398 17.3099 34.0432C17.4355 34.3465 17.5001 34.6717 17.5 35V55C17.5001 55.3283 17.4355 55.6535 17.3099 55.9568C17.1843 56.2602 17.0001 56.5358 16.768 56.768C16.5358 57.0001 16.2602 57.1843 15.9568 57.3099C15.6535 57.4355 15.3283 57.5001 15 57.5Z" fill="#4C8CCD"/>
<path d="M35 57.5H25C24.6717 57.5001 24.3465 57.4355 24.0432 57.3099C23.7398 57.1843 23.4642 57.0001 23.232 56.768C22.9999 56.5358 22.8157 56.2602 22.6901 55.9568C22.5645 55.6535 22.4999 55.3283 22.5 55V5C22.4999 4.67167 22.5645 4.34654 22.6901 4.04319C22.8157 3.73984 22.9999 3.46421 23.232 3.23204C23.4642 2.99988 23.7398 2.81573 24.0432 2.69013C24.3465 2.56452 24.6717 2.49991 25 2.5H35C35.3283 2.49991 35.6535 2.56452 35.9568 2.69013C36.2602 2.81573 36.5358 2.99988 36.768 3.23204C37.0001 3.46421 37.1843 3.73984 37.3099 4.04319C37.4355 4.34654 37.5001 4.67167 37.5 5V55C37.5001 55.3283 37.4355 55.6535 37.3099 55.9568C37.1843 56.2602 37.0001 56.5358 36.768 56.768C36.5358 57.0001 36.2602 57.1843 35.9568 57.3099C35.6535 57.4355 35.3283 57.5001 35 57.5Z" fill="#2664A2"/>
<path d="M55 57.5H45C44.6717 57.5001 44.3465 57.4355 44.0432 57.3099C43.7398 57.1843 43.4642 57.0001 43.232 56.768C42.9999 56.5358 42.8157 56.2602 42.6901 55.9568C42.5645 55.6535 42.4999 55.3283 42.5 55V25C42.4999 24.6717 42.5645 24.3465 42.6901 24.0432C42.8157 23.7398 42.9999 23.4642 43.232 23.232C43.4642 22.9999 43.7398 22.8157 44.0432 22.6901C44.3465 22.5645 44.6717 22.4999 45 22.5H55C55.3283 22.4999 55.6535 22.5645 55.9568 22.6901C56.2602 22.8157 56.5358 22.9999 56.768 23.232C57.0001 23.4642 57.1843 23.7398 57.3099 24.0432C57.4355 24.3465 57.5001 24.6717 57.5 25V55C57.5001 55.3283 57.4355 55.6535 57.3099 55.9568C57.1843 56.2602 57.0001 56.5358 56.768 56.768C56.5358 57.0001 56.2602 57.1843 55.9568 57.3099C55.6535 57.4355 55.3283 57.5001 55 57.5Z" fill="#4C8CCD"/>
<path d="M74.482 15L70.926 10.646V15H68.966V5.228H70.926V9.61L74.482 5.228H76.848L72.816 10.072L76.96 15H74.482ZM85.4592 10.954C85.4592 11.234 85.4405 11.486 85.4032 11.71H79.7332C79.7799 12.27 79.9759 12.7087 80.3212 13.026C80.6665 13.3433 81.0912 13.502 81.5952 13.502C82.3232 13.502 82.8412 13.1893 83.1492 12.564H85.2632C85.0392 13.3107 84.6099 13.9267 83.9752 14.412C83.3405 14.888 82.5612 15.126 81.6372 15.126C80.8905 15.126 80.2185 14.9627 79.6212 14.636C79.0332 14.3 78.5712 13.8287 78.2352 13.222C77.9085 12.6153 77.7452 11.9153 77.7452 11.122C77.7452 10.3193 77.9085 9.61467 78.2352 9.008C78.5619 8.40133 79.0192 7.93467 79.6072 7.608C80.1952 7.28133 80.8719 7.118 81.6372 7.118C82.3745 7.118 83.0325 7.27667 83.6112 7.594C84.1992 7.91133 84.6519 8.364 84.9692 8.952C85.2959 9.53067 85.4592 10.198 85.4592 10.954ZM83.4292 10.394C83.4199 9.89 83.2379 9.48867 82.8832 9.19C82.5285 8.882 82.0945 8.728 81.5812 8.728C81.0959 8.728 80.6852 8.87733 80.3492 9.176C80.0225 9.46533 79.8219 9.87133 79.7472 10.394H83.4292ZM94.3098 7.244L89.5078 18.668H87.4218L89.1018 14.804L85.9938 7.244H88.1918L90.1938 12.662L92.2238 7.244H94.3098ZM70.926 45.228V55H68.966V45.228H70.926ZM77.1605 47.132C78.0845 47.132 78.8312 47.426 79.4005 48.014C79.9698 48.5927 80.2545 49.4047 80.2545 50.45V55H78.2945V50.716C78.2945 50.1 78.1405 49.6287 77.8325 49.302C77.5245 48.966 77.1045 48.798 76.5725 48.798C76.0312 48.798 75.6018 48.966 75.2845 49.302C74.9765 49.6287 74.8225 50.1 74.8225 50.716V55H72.8625V47.244H74.8225V48.21C75.0838 47.874 75.4152 47.6127 75.8165 47.426C76.2272 47.23 76.6752 47.132 77.1605 47.132ZM81.6143 51.094C81.6143 50.31 81.7683 49.6147 82.0763 49.008C82.3937 48.4013 82.823 47.9347 83.3643 47.608C83.9057 47.2813 84.5077 47.118 85.1703 47.118C85.6743 47.118 86.155 47.23 86.6123 47.454C87.0697 47.6687 87.4337 47.958 87.7043 48.322V44.64H89.6923V55H87.7043V53.852C87.4617 54.2347 87.121 54.5427 86.6823 54.776C86.2437 55.0093 85.735 55.126 85.1563 55.126C84.503 55.126 83.9057 54.958 83.3643 54.622C82.823 54.286 82.3937 53.8147 82.0763 53.208C81.7683 52.592 81.6143 51.8873 81.6143 51.094ZM87.7183 51.122C87.7183 50.646 87.625 50.24 87.4383 49.904C87.2517 49.5587 86.9997 49.2973 86.6823 49.12C86.365 48.9333 86.0243 48.84 85.6603 48.84C85.2963 48.84 84.9603 48.9287 84.6523 49.106C84.3443 49.2833 84.0923 49.5447 83.8963 49.89C83.7097 50.226 83.6163 50.6273 83.6163 51.094C83.6163 51.5607 83.7097 51.9713 83.8963 52.326C84.0923 52.6713 84.3443 52.9373 84.6523 53.124C84.9697 53.3107 85.3057 53.404 85.6603 53.404C86.0243 53.404 86.365 53.3153 86.6823 53.138C86.9997 52.9513 87.2517 52.69 87.4383 52.354C87.625 52.0087 87.7183 51.598 87.7183 51.122ZM92.6006 46.32C92.2553 46.32 91.966 46.2127 91.7326 45.998C91.5086 45.774 91.3966 45.4987 91.3966 45.172C91.3966 44.8453 91.5086 44.5747 91.7326 44.36C91.966 44.136 92.2553 44.024 92.6006 44.024C92.946 44.024 93.2306 44.136 93.4546 44.36C93.688 44.5747 93.8046 44.8453 93.8046 45.172C93.8046 45.4987 93.688 45.774 93.4546 45.998C93.2306 46.2127 92.946 46.32 92.6006 46.32ZM93.5666 47.244V55H91.6066V47.244H93.5666ZM94.9991 51.122C94.9991 50.3193 95.1624 49.6193 95.4891 49.022C95.8158 48.4153 96.2684 47.9487 96.8471 47.622C97.4258 47.286 98.0884 47.118 98.8351 47.118C99.7964 47.118 100.59 47.3607 101.215 47.846C101.85 48.322 102.274 48.994 102.489 49.862H100.375C100.263 49.526 100.072 49.2647 99.8011 49.078C99.5398 48.882 99.2131 48.784 98.8211 48.784C98.2611 48.784 97.8178 48.9893 97.4911 49.4C97.1644 49.8013 97.0011 50.3753 97.0011 51.122C97.0011 51.8593 97.1644 52.4333 97.4911 52.844C97.8178 53.2453 98.2611 53.446 98.8211 53.446C99.6144 53.446 100.132 53.0913 100.375 52.382H102.489C102.274 53.222 101.85 53.8893 101.215 54.384C100.58 54.8787 99.7871 55.126 98.8351 55.126C98.0884 55.126 97.4258 54.9627 96.8471 54.636C96.2684 54.3 95.8158 53.8333 95.4891 53.236C95.1624 52.6293 94.9991 51.9247 94.9991 51.122ZM103.421 51.094C103.421 50.31 103.575 49.6147 103.883 49.008C104.2 48.4013 104.625 47.9347 105.157 47.608C105.698 47.2813 106.3 47.118 106.963 47.118C107.542 47.118 108.046 47.2347 108.475 47.468C108.914 47.7013 109.264 47.9953 109.525 48.35V47.244H111.499V55H109.525V53.866C109.273 54.23 108.923 54.5333 108.475 54.776C108.036 55.0093 107.528 55.126 106.949 55.126C106.296 55.126 105.698 54.958 105.157 54.622C104.625 54.286 104.2 53.8147 103.883 53.208C103.575 52.592 103.421 51.8873 103.421 51.094ZM109.525 51.122C109.525 50.646 109.432 50.24 109.245 49.904C109.058 49.5587 108.806 49.2973 108.489 49.12C108.172 48.9333 107.831 48.84 107.467 48.84C107.103 48.84 106.767 48.9287 106.459 49.106C106.151 49.2833 105.899 49.5447 105.703 49.89C105.516 50.226 105.423 50.6273 105.423 51.094C105.423 51.5607 105.516 51.9713 105.703 52.326C105.899 52.6713 106.151 52.9373 106.459 53.124C106.776 53.3107 107.112 53.404 107.467 53.404C107.831 53.404 108.172 53.3153 108.489 53.138C108.806 52.9513 109.058 52.69 109.245 52.354C109.432 52.0087 109.525 51.598 109.525 51.122ZM115.695 48.854V52.606C115.695 52.8673 115.756 53.0587 115.877 53.18C116.008 53.292 116.223 53.348 116.521 53.348H117.431V55H116.199C114.547 55 113.721 54.1973 113.721 52.592V48.854H112.797V47.244H113.721V45.326H115.695V47.244H117.431V48.854H115.695ZM122.285 55.126C121.538 55.126 120.866 54.9627 120.269 54.636C119.672 54.3 119.2 53.8287 118.855 53.222C118.519 52.6153 118.351 51.9153 118.351 51.122C118.351 50.3287 118.524 49.6287 118.869 49.022C119.224 48.4153 119.704 47.9487 120.311 47.622C120.918 47.286 121.594 47.118 122.341 47.118C123.088 47.118 123.764 47.286 124.371 47.622C124.978 47.9487 125.454 48.4153 125.799 49.022C126.154 49.6287 126.331 50.3287 126.331 51.122C126.331 51.9153 126.149 52.6153 125.785 53.222C125.43 53.8287 124.945 54.3 124.329 54.636C123.722 54.9627 123.041 55.126 122.285 55.126ZM122.285 53.418C122.64 53.418 122.971 53.334 123.279 53.166C123.596 52.9887 123.848 52.7273 124.035 52.382C124.222 52.0367 124.315 51.6167 124.315 51.122C124.315 50.3847 124.119 49.82 123.727 49.428C123.344 49.0267 122.873 48.826 122.313 48.826C121.753 48.826 121.282 49.0267 120.899 49.428C120.526 49.82 120.339 50.3847 120.339 51.122C120.339 51.8593 120.521 52.4287 120.885 52.83C121.258 53.222 121.725 53.418 122.285 53.418ZM129.729 48.448C129.981 48.0373 130.307 47.7153 130.709 47.482C131.119 47.2487 131.586 47.132 132.109 47.132V49.19H131.591C130.975 49.19 130.508 49.3347 130.191 49.624C129.883 49.9133 129.729 50.4173 129.729 51.136V55H127.769V47.244H129.729V48.448Z" fill="#5E6278"/>
<path d="M76.092 28.252C76.092 28.7747 75.966 29.2647 75.714 29.722C75.4713 30.1793 75.084 30.548 74.552 30.828C74.0293 31.108 73.3667 31.248 72.564 31.248H70.926V35H68.966V25.228H72.564C73.32 25.228 73.964 25.3587 74.496 25.62C75.028 25.8813 75.4247 26.2407 75.686 26.698C75.9567 27.1553 76.092 27.6733 76.092 28.252ZM72.48 29.666C73.0213 29.666 73.4227 29.5447 73.684 29.302C73.9453 29.05 74.076 28.7 74.076 28.252C74.076 27.3 73.544 26.824 72.48 26.824H70.926V29.666H72.48ZM84.6936 30.954C84.6936 31.234 84.6749 31.486 84.6376 31.71H78.9676C79.0142 32.27 79.2102 32.7087 79.5556 33.026C79.9009 33.3433 80.3256 33.502 80.8296 33.502C81.5576 33.502 82.0756 33.1893 82.3836 32.564H84.4976C84.2736 33.3107 83.8442 33.9267 83.2096 34.412C82.5749 34.888 81.7956 35.126 80.8716 35.126C80.1249 35.126 79.4529 34.9627 78.8556 34.636C78.2676 34.3 77.8056 33.8287 77.4696 33.222C77.1429 32.6153 76.9796 31.9153 76.9796 31.122C76.9796 30.3193 77.1429 29.6147 77.4696 29.008C77.7962 28.4013 78.2536 27.9347 78.8416 27.608C79.4296 27.2813 80.1062 27.118 80.8716 27.118C81.6089 27.118 82.2669 27.2767 82.8456 27.594C83.4336 27.9113 83.8862 28.364 84.2036 28.952C84.5302 29.5307 84.6936 30.198 84.6936 30.954ZM82.6636 30.394C82.6542 29.89 82.4722 29.4887 82.1176 29.19C81.7629 28.882 81.3289 28.728 80.8156 28.728C80.3302 28.728 79.9196 28.8773 79.5836 29.176C79.2569 29.4653 79.0562 29.8713 78.9816 30.394H82.6636ZM88.0842 28.448C88.3362 28.0373 88.6629 27.7153 89.0642 27.482C89.4749 27.2487 89.9415 27.132 90.4642 27.132V29.19H89.9462C89.3302 29.19 88.8635 29.3347 88.5462 29.624C88.2382 29.9133 88.0842 30.4173 88.0842 31.136V35H86.1242V27.244H88.0842V28.448ZM95.3404 28.854H93.9824V35H91.9944V28.854H91.1124V27.244H91.9944V26.852C91.9944 25.9 92.265 25.2 92.8064 24.752C93.3477 24.304 94.1644 24.094 95.2564 24.122V25.774C94.7804 25.7647 94.449 25.844 94.2624 26.012C94.0757 26.18 93.9824 26.4833 93.9824 26.922V27.244H95.3404V28.854ZM100.055 35.126C99.3079 35.126 98.6359 34.9627 98.0385 34.636C97.4412 34.3 96.9699 33.8287 96.6245 33.222C96.2885 32.6153 96.1205 31.9153 96.1205 31.122C96.1205 30.3287 96.2932 29.6287 96.6385 29.022C96.9932 28.4153 97.4739 27.9487 98.0805 27.622C98.6872 27.286 99.3639 27.118 100.111 27.118C100.857 27.118 101.534 27.286 102.141 27.622C102.747 27.9487 103.223 28.4153 103.569 29.022C103.923 29.6287 104.101 30.3287 104.101 31.122C104.101 31.9153 103.919 32.6153 103.555 33.222C103.2 33.8287 102.715 34.3 102.099 34.636C101.492 34.9627 100.811 35.126 100.055 35.126ZM100.055 33.418C100.409 33.418 100.741 33.334 101.049 33.166C101.366 32.9887 101.618 32.7273 101.805 32.382C101.991 32.0367 102.085 31.6167 102.085 31.122C102.085 30.3847 101.889 29.82 101.497 29.428C101.114 29.0267 100.643 28.826 100.083 28.826C99.5225 28.826 99.0512 29.0267 98.6685 29.428C98.2952 29.82 98.1085 30.3847 98.1085 31.122C98.1085 31.8593 98.2905 32.4287 98.6545 32.83C99.0279 33.222 99.4945 33.418 100.055 33.418ZM107.498 28.448C107.75 28.0373 108.077 27.7153 108.478 27.482C108.889 27.2487 109.356 27.132 109.878 27.132V29.19H109.36C108.744 29.19 108.278 29.3347 107.96 29.624C107.652 29.9133 107.498 30.4173 107.498 31.136V35H105.538V27.244H107.498V28.448ZM120.83 27.132C121.782 27.132 122.548 27.426 123.126 28.014C123.714 28.5927 124.008 29.4047 124.008 30.45V35H122.048V30.716C122.048 30.1093 121.894 29.6473 121.586 29.33C121.278 29.0033 120.858 28.84 120.326 28.84C119.794 28.84 119.37 29.0033 119.052 29.33C118.744 29.6473 118.59 30.1093 118.59 30.716V35H116.63V30.716C116.63 30.1093 116.476 29.6473 116.168 29.33C115.86 29.0033 115.44 28.84 114.908 28.84C114.367 28.84 113.938 29.0033 113.62 29.33C113.312 29.6473 113.158 30.1093 113.158 30.716V35H111.198V27.244H113.158V28.182C113.41 27.8553 113.732 27.5987 114.124 27.412C114.526 27.2253 114.964 27.132 115.44 27.132C116.047 27.132 116.588 27.2627 117.064 27.524C117.54 27.776 117.909 28.14 118.17 28.616C118.422 28.168 118.786 27.8087 119.262 27.538C119.748 27.2673 120.27 27.132 120.83 27.132ZM125.364 31.094C125.364 30.31 125.518 29.6147 125.826 29.008C126.144 28.4013 126.568 27.9347 127.1 27.608C127.642 27.2813 128.244 27.118 128.906 27.118C129.485 27.118 129.989 27.2347 130.418 27.468C130.857 27.7013 131.207 27.9953 131.468 28.35V27.244H133.442V35H131.468V33.866C131.216 34.23 130.866 34.5333 130.418 34.776C129.98 35.0093 129.471 35.126 128.892 35.126C128.239 35.126 127.642 34.958 127.1 34.622C126.568 34.286 126.144 33.8147 125.826 33.208C125.518 32.592 125.364 31.8873 125.364 31.094ZM131.468 31.122C131.468 30.646 131.375 30.24 131.188 29.904C131.002 29.5587 130.75 29.2973 130.432 29.12C130.115 28.9333 129.774 28.84 129.41 28.84C129.046 28.84 128.71 28.9287 128.402 29.106C128.094 29.2833 127.842 29.5447 127.646 29.89C127.46 30.226 127.366 30.6273 127.366 31.094C127.366 31.5607 127.46 31.9713 127.646 32.326C127.842 32.6713 128.094 32.9373 128.402 33.124C128.72 33.3107 129.056 33.404 129.41 33.404C129.774 33.404 130.115 33.3153 130.432 33.138C130.75 32.9513 131.002 32.69 131.188 32.354C131.375 32.0087 131.468 31.598 131.468 31.122ZM139.655 27.132C140.579 27.132 141.325 27.426 141.895 28.014C142.464 28.5927 142.749 29.4047 142.749 30.45V35H140.789V30.716C140.789 30.1 140.635 29.6287 140.327 29.302C140.019 28.966 139.599 28.798 139.067 28.798C138.525 28.798 138.096 28.966 137.779 29.302C137.471 29.6287 137.317 30.1 137.317 30.716V35H135.357V27.244H137.317V28.21C137.578 27.874 137.909 27.6127 138.311 27.426C138.721 27.23 139.169 27.132 139.655 27.132ZM144.108 31.122C144.108 30.3193 144.272 29.6193 144.598 29.022C144.925 28.4153 145.378 27.9487 145.956 27.622C146.535 27.286 147.198 27.118 147.944 27.118C148.906 27.118 149.699 27.3607 150.324 27.846C150.959 28.322 151.384 28.994 151.598 29.862H149.484C149.372 29.526 149.181 29.2647 148.91 29.078C148.649 28.882 148.322 28.784 147.93 28.784C147.37 28.784 146.927 28.9893 146.6 29.4C146.274 29.8013 146.11 30.3753 146.11 31.122C146.11 31.8593 146.274 32.4333 146.6 32.844C146.927 33.2453 147.37 33.446 147.93 33.446C148.724 33.446 149.242 33.0913 149.484 32.382H151.598C151.384 33.222 150.959 33.8893 150.324 34.384C149.69 34.8787 148.896 35.126 147.944 35.126C147.198 35.126 146.535 34.9627 145.956 34.636C145.378 34.3 144.925 33.8333 144.598 33.236C144.272 32.6293 144.108 31.9247 144.108 31.122ZM160.244 30.954C160.244 31.234 160.226 31.486 160.188 31.71H154.518C154.565 32.27 154.761 32.7087 155.106 33.026C155.452 33.3433 155.876 33.502 156.38 33.502C157.108 33.502 157.626 33.1893 157.934 32.564H160.048C159.824 33.3107 159.395 33.9267 158.76 34.412C158.126 34.888 157.346 35.126 156.422 35.126C155.676 35.126 155.004 34.9627 154.406 34.636C153.818 34.3 153.356 33.8287 153.02 33.222C152.694 32.6153 152.53 31.9153 152.53 31.122C152.53 30.3193 152.694 29.6147 153.02 29.008C153.347 28.4013 153.804 27.9347 154.392 27.608C154.98 27.2813 155.657 27.118 156.422 27.118C157.16 27.118 157.818 27.2767 158.396 27.594C158.984 27.9113 159.437 28.364 159.754 28.952C160.081 29.5307 160.244 30.198 160.244 30.954ZM158.214 30.394C158.205 29.89 158.023 29.4887 157.668 29.19C157.314 28.882 156.88 28.728 156.366 28.728C155.881 28.728 155.47 28.8773 155.134 29.176C154.808 29.4653 154.607 29.8713 154.532 30.394H158.214Z" fill="#2664A2"/>
</svg>
